<svg xmlns="http://www.w3.org/2000/svg" viewBox="0 0 256 256" role="img" aria-labelledby="title desc">
  <title id="title">短笺标志</title>
  <desc id="desc">一张折角文档延伸成向右箭头</desc>
  <defs>
    <mask id="negative-space" maskUnits="userSpaceOnUse" x="0" y="0" width="256" height="256">
      <rect width="256" height="256" fill="#fff"/>
      <path d="M154 128 187 146" fill="none" stroke="#000" stroke-width="9" stroke-linecap="round"/>
      <path d="M166 162h-14c-16 0-28 5-40 16l-34 32" fill="none" stroke="#000" stroke-width="9" stroke-linecap="round" stroke-linejoin="round"/>
    </mask>
  </defs>
  <path
    fill="#000"
    mask="url(#negative-space)"
    d="M64 42h82v40c0 8 6 14 14 14h20v31l49 27c9 5 9 14 0 20l-68 42c-4 3-9 4-14 4H64c-16 0-28-12-28-28V70c0-16 12-28 28-28Z"
  />
  <path fill="#000" d="m154 44 24 24v18h-24V44Z"/>
</svg>
